<svg width="37" height="26" viewBox="0 0 37 26" fill="none" xmlns="http://www.w3.org/2000/svg">
<g clip-path="url(#clip0_197_198)">
<path d="M12 12.8104V2.84375C12 1.54932 13.0493 0.5 14.3438 0.5H24.3104C24.932 0.500003 25.5282 0.746935 25.9677 1.18647L36.3135 11.5323C37.2288 12.4476 37.2288 13.9315 36.3135 14.8468L26.3468 24.8135C25.4315 25.7288 23.9476 25.7288 23.0323 24.8135L12.6865 14.4677C12.2469 14.0282 12 13.432 12 12.8104ZM17.4688 3.625C16.1743 3.625 15.125 4.67432 15.125 5.96875C15.125 7.26318 16.1743 8.3125 17.4688 8.3125C18.7632 8.3125 19.8125 7.26318 19.8125 5.96875C19.8125 4.67432 18.7632 3.625 17.4688 3.625Z" fill="#FF8E00"/>
</g>
<path d="M10.5 18.375H7.125V15C7.125 14.5859 6.78914 14.25 6.375 14.25H5.625C5.21086 14.25 4.875 14.5859 4.875 15V18.375H1.5C1.08586 18.375 0.75 18.7109 0.75 19.125V19.875C0.75 20.2891 1.08586 20.625 1.5 20.625H4.875V24C4.875 24.4141 5.21086 24.75 5.625 24.75H6.375C6.78914 24.75 7.125 24.4141 7.125 24V20.625H10.5C10.9141 20.625 11.25 20.2891 11.25 19.875V19.125C11.25 18.7109 10.9141 18.375 10.5 18.375Z" fill="#FF8E00"/>
<defs>
<clipPath id="clip0_197_198">
<rect width="25" height="25" fill="white" transform="translate(12 0.5)"/>
</clipPath>
</defs>
</svg>
