<svg width="13" height="11" viewBox="0 0 13 11" fill="none" xmlns="http://www.w3.org/2000/svg">
<g clip-path="url(#clip0_195_108)">
<path d="M5.72011 0.0416574L0.150214 3.52238C-0.0672942 3.65776 -0.039655 3.98578 0.176652 4.08471L1.45406 4.66526L4.90656 1.36938C4.97265 1.3056 5.06639 1.40323 5.00991 1.47742L2.115 5.29789V6.34575C2.115 6.65295 2.45749 6.774 2.62573 6.55141L3.38881 5.54521L4.88613 6.22469C5.05677 6.30279 5.25145 6.18694 5.28269 5.98778L6.14792 0.364477C6.18878 0.101535 5.92801 -0.0885117 5.72011 0.0416574Z" fill="#32373A"/>
</g>
<g clip-path="url(#clip1_195_108)">
<path d="M7.16772 10.3231C7.16772 10.5026 7.23356 10.6748 7.35075 10.8017C7.46793 10.9287 7.62688 11 7.79261 11H11.5419C11.7077 11 11.8666 10.9287 11.9838 10.8017C12.101 10.6748 12.1668 10.5026 12.1668 10.3231V5.58497H7.16772V10.3231ZM10.7087 6.7131C10.7087 6.65326 10.7307 6.59587 10.7698 6.55356C10.8088 6.51124 10.8618 6.48747 10.917 6.48747C10.9723 6.48747 11.0253 6.51124 11.0643 6.55356C11.1034 6.59587 11.1253 6.65326 11.1253 6.7131V9.87187C11.1253 9.93171 11.1034 9.9891 11.0643 10.0314C11.0253 10.0737 10.9723 10.0975 10.917 10.0975C10.8618 10.0975 10.8088 10.0737 10.7698 10.0314C10.7307 9.9891 10.7087 9.93171 10.7087 9.87187V6.7131ZM9.45897 6.7131C9.45897 6.65326 9.48092 6.59587 9.51998 6.55356C9.55904 6.51124 9.61202 6.48747 9.66727 6.48747C9.72251 6.48747 9.77549 6.51124 9.81455 6.55356C9.85362 6.59587 9.87556 6.65326 9.87556 6.7131V9.87187C9.87556 9.93171 9.85362 9.9891 9.81455 10.0314C9.77549 10.0737 9.72251 10.0975 9.66727 10.0975C9.61202 10.0975 9.55904 10.0737 9.51998 10.0314C9.48092 9.9891 9.45897 9.93171 9.45897 9.87187V6.7131ZM8.2092 6.7131C8.2092 6.65326 8.23114 6.59587 8.27021 6.55356C8.30927 6.51124 8.36225 6.48747 8.41749 6.48747C8.47274 6.48747 8.52572 6.51124 8.56478 6.55356C8.60384 6.59587 8.62579 6.65326 8.62579 6.7131V9.87187C8.62579 9.93171 8.60384 9.9891 8.56478 10.0314C8.52572 10.0737 8.47274 10.0975 8.41749 10.0975C8.36225 10.0975 8.30927 10.0737 8.27021 10.0314C8.23114 9.9891 8.2092 9.93171 8.2092 9.87187V6.7131ZM12.3751 4.23121H10.8129L10.6905 3.96751C10.6646 3.91113 10.6247 3.86371 10.5752 3.83057C10.5258 3.79744 10.4688 3.77991 10.4106 3.77996H8.92261C8.8646 3.77971 8.80769 3.79718 8.75842 3.83035C8.70915 3.86352 8.6695 3.91105 8.64401 3.96751L8.52164 4.23121H6.95942C6.90418 4.23121 6.8512 4.25498 6.81214 4.29729C6.77307 4.33961 6.75113 4.39699 6.75113 4.45683V4.90809C6.75113 4.96793 6.77307 5.02532 6.81214 5.06763C6.8512 5.10994 6.90418 5.13371 6.95942 5.13371H12.3751C12.4303 5.13371 12.4833 5.10994 12.5224 5.06763C12.5615 5.02532 12.5834 4.96793 12.5834 4.90809V4.45683C12.5834 4.39699 12.5615 4.33961 12.5224 4.29729C12.4833 4.25498 12.4303 4.23121 12.3751 4.23121Z" fill="#32373A"/>
</g>
<defs>
<clipPath id="clip0_195_108">
<rect width="6.15273" height="6.66466" fill="white"/>
</clipPath>
<clipPath id="clip1_195_108">
<rect width="6.66545" height="7.22005" fill="white" transform="translate(6.33453 3.77995)"/>
</clipPath>
</defs>
</svg>
