<svg width="13" height="11" viewBox="0 0 13 11" fill="none" xmlns="http://www.w3.org/2000/svg">
<g clip-path="url(#clip0_28_194)">
<path d="M5.72011 0.0416574L0.150214 3.52238C-0.0672942 3.65776 -0.039655 3.98578 0.176652 4.08471L1.45406 4.66526L4.90656 1.36938C4.97265 1.3056 5.06639 1.40323 5.00991 1.47742L2.115 5.29789V6.34575C2.115 6.65295 2.45749 6.774 2.62573 6.55141L3.38881 5.54521L4.88613 6.22469C5.05677 6.30279 5.25145 6.18694 5.28269 5.98778L6.14792 0.364477C6.18878 0.101535 5.92801 -0.0885117 5.72011 0.0416574Z" fill="#FF8E00"/>
</g>
<g clip-path="url(#clip1_28_194)">
<path d="M7.16769 10.3231C7.16769 10.5026 7.23353 10.6748 7.35071 10.8017C7.4679 10.9287 7.62685 11 7.79258 11H11.5419C11.7076 11 11.8666 10.9287 11.9838 10.8017C12.1009 10.6748 12.1668 10.5026 12.1668 10.3231V5.58497H7.16769V10.3231ZM10.7087 6.7131C10.7087 6.65326 10.7307 6.59587 10.7697 6.55356C10.8088 6.51124 10.8618 6.48747 10.917 6.48747C10.9723 6.48747 11.0252 6.51124 11.0643 6.55356C11.1034 6.59587 11.1253 6.65326 11.1253 6.7131V9.87187C11.1253 9.93171 11.1034 9.9891 11.0643 10.0314C11.0252 10.0737 10.9723 10.0975 10.917 10.0975C10.8618 10.0975 10.8088 10.0737 10.7697 10.0314C10.7307 9.9891 10.7087 9.93171 10.7087 9.87187V6.7131ZM9.45894 6.7131C9.45894 6.65326 9.48088 6.59587 9.51995 6.55356C9.55901 6.51124 9.61199 6.48747 9.66723 6.48747C9.72248 6.48747 9.77546 6.51124 9.81452 6.55356C9.85358 6.59587 9.87553 6.65326 9.87553 6.7131V9.87187C9.87553 9.93171 9.85358 9.9891 9.81452 10.0314C9.77546 10.0737 9.72248 10.0975 9.66723 10.0975C9.61199 10.0975 9.55901 10.0737 9.51995 10.0314C9.48088 9.9891 9.45894 9.93171 9.45894 9.87187V6.7131ZM8.20917 6.7131C8.20917 6.65326 8.23111 6.59587 8.27017 6.55356C8.30924 6.51124 8.36222 6.48747 8.41746 6.48747C8.47271 6.48747 8.52569 6.51124 8.56475 6.55356C8.60381 6.59587 8.62576 6.65326 8.62576 6.7131V9.87187C8.62576 9.93171 8.60381 9.9891 8.56475 10.0314C8.52569 10.0737 8.47271 10.0975 8.41746 10.0975C8.36222 10.0975 8.30924 10.0737 8.27017 10.0314C8.23111 9.9891 8.20917 9.93171 8.20917 9.87187V6.7131ZM12.3751 4.23121H10.8129L10.6905 3.96751C10.6646 3.91113 10.6246 3.86371 10.5752 3.83057C10.5257 3.79744 10.4687 3.77991 10.4106 3.77996H8.92258C8.86457 3.77971 8.80766 3.79718 8.75839 3.83035C8.70912 3.86352 8.66947 3.91105 8.64398 3.96751L8.52161 4.23121H6.95939C6.90415 4.23121 6.85117 4.25498 6.81211 4.29729C6.77304 4.33961 6.7511 4.39699 6.7511 4.45683V4.90809C6.7511 4.96793 6.77304 5.02532 6.81211 5.06763C6.85117 5.10994 6.90415 5.13371 6.95939 5.13371H12.3751C12.4303 5.13371 12.4833 5.10994 12.5224 5.06763C12.5614 5.02532 12.5834 4.96793 12.5834 4.90809V4.45683C12.5834 4.39699 12.5614 4.33961 12.5224 4.29729C12.4833 4.25498 12.4303 4.23121 12.3751 4.23121Z" fill="#FF8E00"/>
</g>
<defs>
<clipPath id="clip0_28_194">
<rect width="6.15273" height="6.66466" fill="white"/>
</clipPath>
<clipPath id="clip1_28_194">
<rect width="6.66545" height="7.22005" fill="white" transform="translate(6.33453 3.77995)"/>
</clipPath>
</defs>
</svg>
