<svg width="17" height="14" viewBox="0 0 17 14" fill="none" xmlns="http://www.w3.org/2000/svg">
<g clip-path="url(#clip0_195_78)">
<path d="M16.2797 2.22041L15.5594 2.94072C15.486 3.01416 15.3672 3.01416 15.2938 2.94072L13.5594 1.20634C13.486 1.13291 13.486 1.01416 13.5594 0.94072L14.2797 0.220407C14.5719 -0.0717804 15.0469 -0.0717804 15.3407 0.220407L16.2797 1.15947C16.5735 1.45166 16.5735 1.92666 16.2797 2.22041ZM12.9407 1.55947L8.83753 5.66259L8.50628 7.56103C8.46096 7.81728 8.6844 8.03916 8.94065 7.99541L10.8391 7.6626L14.9422 3.55947C15.0157 3.48603 15.0157 3.36728 14.9422 3.29385L13.2078 1.55947C13.1328 1.48603 13.0141 1.48603 12.9407 1.55947ZM10.4391 5.31103C10.3532 5.22509 10.3532 5.08759 10.4391 5.00166L12.8453 2.59541C12.9313 2.50947 13.0688 2.50947 13.1547 2.59541C13.2407 2.68134 13.2407 2.81884 13.1547 2.90478L10.7485 5.31103C10.6625 5.39697 10.525 5.39697 10.4391 5.31103ZM9.87503 6.6251H10.625V7.19228L9.61721 7.36885L9.13128 6.88291L9.30784 5.87509H9.87503V6.6251Z" fill="#32373A"/>
</g>
<g clip-path="url(#clip1_195_78)">
<path d="M5.37501 7.63541V5.33333H1.98959C1.76446 5.33333 1.58334 5.51445 1.58334 5.73958V13.5937C1.58334 13.8189 1.76446 14 1.98959 14H7.67709C7.90222 14 8.08334 13.8189 8.08334 13.5937V8.04166H5.78126C5.55782 8.04166 5.37501 7.85885 5.37501 7.63541ZM6.45834 11.6302C6.45834 11.7419 6.36694 11.8333 6.25522 11.8333H3.41147C3.29975 11.8333 3.20834 11.7419 3.20834 11.6302V11.4948C3.20834 11.3831 3.29975 11.2917 3.41147 11.2917H6.25522C6.36694 11.2917 6.45834 11.3831 6.45834 11.4948V11.6302ZM6.45834 10.5469C6.45834 10.6586 6.36694 10.75 6.25522 10.75H3.41147C3.29975 10.75 3.20834 10.6586 3.20834 10.5469V10.4115C3.20834 10.2997 3.29975 10.2083 3.41147 10.2083H6.25522C6.36694 10.2083 6.45834 10.2997 6.45834 10.4115V10.5469ZM6.45834 9.32812V9.46354C6.45834 9.57525 6.36694 9.66666 6.25522 9.66666H3.41147C3.29975 9.66666 3.20834 9.57525 3.20834 9.46354V9.32812C3.20834 9.2164 3.29975 9.12499 3.41147 9.12499H6.25522C6.36694 9.12499 6.45834 9.2164 6.45834 9.32812ZM8.08334 7.39674V7.49999H5.91668V5.33333H6.01993C6.12827 5.33333 6.23152 5.37565 6.30769 5.45182L7.96485 7.11067C8.04103 7.18684 8.08334 7.2901 8.08334 7.39674Z" fill="#32373A"/>
</g>
<defs>
<clipPath id="clip0_195_78">
<rect width="8" height="8" fill="white" transform="translate(8.5)"/>
</clipPath>
<clipPath id="clip1_195_78">
<rect width="8.66667" height="8.66667" fill="white" transform="translate(0.5 5.33333)"/>
</clipPath>
</defs>
</svg>
